#N canvas 508 149 661 603 12;
#X obj -138 124 print rejected;
#X floatatom -153 232 5 0 0 0 - - -;
#X floatatom -63 232 5 0 0 0 - - -;
#X obj -151 69 print rcvOSC;
#X obj -149 43 s rcvOSC;
#X obj -275 15 dumpOSC 8000;
#X obj -210 515 noteout;
#X msg -140 481 1;
#X obj -272 442 bng 15 250 50 0 empty empty empty 17 7 0 10 -262144
-1 -1;
#X obj -272 490 delay;
#X msg -260 464 1000;
#X obj -272 517 bng 15 250 50 0 empty empty empty 17 7 0 10 -262144
-1 -1;
#X obj -210 480 makenote;
#X floatatom -184 428 5 0 0 0 - - -;
#X floatatom -156 454 5 0 0 0 - - -;
#X obj -153 189 unpack f f;
#X msg -112 252 1;
#X obj -153 94 OSCroute /manos;
#X obj -153 150 OSCroute /izq /der;
#X msg -25 254 1;
#X text -146 210 izq;
#X text -56 209 der;
#X obj -275 94 OSCroute /live;
#X obj -275 149 unpack i;
#X floatatom -275 178 5 0 0 0 - - -;
#X obj -275 210 ctlout 16;
#X msg -215 178 1;
#X obj -275 122 OSCroute /vol;
#X obj -153 281 ctlout 14;
#X obj -63 281 ctlout 15;
#X floatatom -22 430 5 0 0 0 - - -;
#X msg 38 430 1;
#X obj 0 377 OSCroute /vol;
#X text 88 171 manos zona 2;
#X obj 218 202 OSCroute /live;
#X obj 218 257 unpack i;
#X floatatom 218 286 5 0 0 0 - - -;
#X obj 218 318 ctlout 16;
#X msg 278 286 1;
#X obj 218 230 OSCroute /vol;
#X text 218 170 manos zona 3;
#X obj -259 351 loadbang;
#X obj 88 25 OSCroute /live;
#X obj 88 80 unpack i;
#X floatatom 88 109 5 0 0 0 - - -;
#X obj 88 141 ctlout 16;
#X msg 148 109 1;
#X obj 88 53 OSCroute /vol;
#X obj 218 24 OSCroute /live;
#X obj 218 79 unpack i;
#X floatatom 218 108 5 0 0 0 - - -;
#X obj 218 140 ctlout 16;
#X msg 278 108 1;
#X obj 218 52 OSCroute /vol;
#X text 88 -7 vol zona 2;
#X text 218 -8 vol zona 3;
#X obj -22 401 unpack f f;
#X floatatom 91 430 5 0 0 0 - - -;
#X msg 151 430 1;
#X obj -22 346 OSCroute /manos_u2;
#X obj -22 462 ctlout 17;
#X obj 91 462 ctlout 18;
#X connect 1 0 28 0;
#X connect 2 0 29 0;
#X connect 5 0 4 0;
#X connect 5 0 3 0;
#X connect 5 0 17 0;
#X connect 5 0 22 0;
#X connect 5 0 59 0;
#X connect 7 0 6 2;
#X connect 8 0 9 0;
#X connect 9 0 11 0;
#X connect 10 0 9 0;
#X connect 12 0 6 0;
#X connect 12 1 6 1;
#X connect 13 0 12 1;
#X connect 14 0 12 2;
#X connect 15 0 1 0;
#X connect 15 1 2 0;
#X connect 16 0 28 2;
#X connect 17 0 18 0;
#X connect 17 1 0 0;
#X connect 18 0 15 0;
#X connect 18 1 15 0;
#X connect 19 0 29 2;
#X connect 22 0 27 0;
#X connect 23 0 24 0;
#X connect 24 0 25 0;
#X connect 26 0 25 2;
#X connect 27 0 23 0;
#X connect 30 0 60 0;
#X connect 31 0 60 2;
#X connect 34 0 39 0;
#X connect 35 0 36 0;
#X connect 36 0 37 0;
#X connect 38 0 37 2;
#X connect 39 0 35 0;
#X connect 42 0 47 0;
#X connect 43 0 44 0;
#X connect 44 0 45 0;
#X connect 46 0 45 2;
#X connect 47 0 43 0;
#X connect 48 0 53 0;
#X connect 49 0 50 0;
#X connect 50 0 51 0;
#X connect 52 0 51 2;
#X connect 53 0 49 0;
#X connect 56 0 30 0;
#X connect 56 1 57 0;
#X connect 57 0 61 0;
#X connect 58 0 61 2;
#X connect 59 0 56 0;
#X connect 59 1 56 0;
